<svg width="21" height="21" viewBox="0 0 21 21" fill="none" xmlns="http://www.w3.org/2000/svg">
<path d="M-0.000732422 18.252C-0.000732422 13.084 -0.000732422 7.91602 -0.000732422 2.74805C0.0123926 2.71113 0.0304395 2.67504 0.0382324 2.63689C0.301553 1.3248 1.08331 0.486035 2.35644 0.0967969C2.48481 0.057832 2.61688 0.0319922 2.74731 0C7.91528 0 13.0833 0 18.2512 0C18.2881 0.013125 18.3242 0.0311719 18.3624 0.0389648C19.6638 0.300234 20.5042 1.07092 20.8939 2.33584C20.9394 2.48391 20.9648 2.63771 20.9993 2.78906V18.2109C20.9857 18.263 20.9697 18.3143 20.9595 18.3668C20.7093 19.6223 19.9714 20.452 18.7651 20.8663C18.5859 20.9278 18.3956 20.9565 18.2102 21H2.78833C2.74978 20.9881 2.71204 20.9721 2.67267 20.9643C1.35073 20.7158 0.500479 19.9402 0.102627 18.6613C0.060791 18.5272 0.0333105 18.3881 -0.000732422 18.2515L-0.000732422 18.252ZM10.5066 2.50195C8.88694 2.50195 7.26724 2.50072 5.64794 2.50195C3.84571 2.504 2.50204 3.84932 2.50163 5.65318C2.5004 8.88562 2.5004 12.1181 2.50163 15.3505C2.50245 17.1515 3.84899 18.4964 5.65327 18.4972C8.87874 18.4989 12.1042 18.4985 15.3301 18.4972C17.1586 18.4964 18.4969 17.1556 18.4973 15.3247C18.4981 12.1058 18.4981 8.88727 18.4973 5.66836C18.4969 3.83947 17.1569 2.50236 15.3248 2.50154C13.719 2.50072 12.1128 2.50154 10.5071 2.50154L10.5066 2.50195Z" fill="white"/>
<path d="M17.5343 10.7801C17.5343 12.3727 17.5343 13.965 17.5343 15.5576C17.5343 16.7581 16.7595 17.5354 15.5631 17.5354C12.3643 17.5358 9.1659 17.5358 5.96709 17.5354C4.78092 17.5354 3.99999 16.7569 3.99958 15.574C3.99917 12.3686 3.99917 9.16284 3.99958 5.95747C3.99958 4.78483 4.78133 4.00062 5.95028 4.00062C9.16262 3.99979 12.375 3.99979 15.5873 4.00062C16.7464 4.00062 17.5331 4.78483 17.5339 5.94106C17.5356 7.55421 17.5339 9.16694 17.5339 10.7801H17.5343ZM10.759 15.0748C13.1301 15.0785 15.0672 13.1504 15.0734 10.7809C15.0795 8.40897 13.1534 6.46935 10.7848 6.46196C8.40342 6.45417 6.46174 8.38683 6.46051 10.7653C6.45928 13.1356 8.38989 15.0711 10.759 15.0748ZM16.303 6.46935C16.3063 5.79382 15.7596 5.23724 15.0865 5.23149C14.4106 5.22575 13.8511 5.77044 13.8433 6.44269C13.8355 7.12724 14.388 7.68997 15.0697 7.6912C15.744 7.69243 16.2993 7.142 16.3026 6.46935H16.303Z" fill="white"/>
<path d="M14 10.9848C14.006 12.6396 12.6647 13.994 11.015 14C9.3609 14.006 8.00522 12.6636 8.00002 11.0148C7.99481 9.35921 9.3353 8.00562 10.985 8.00002C12.6407 7.99482 13.9944 9.33441 14 10.9844V10.9848Z" fill="white"/>
</svg>
