<svg width="20" height="20" viewBox="0 0 20 20" fill="none" xmlns="http://www.w3.org/2000/svg">
<path d="M19.9993 2.42171V17.578C19.9863 17.6277 19.9706 17.6774 19.9601 17.7271C19.7351 18.8229 19.0968 19.5474 18.0294 19.8874C17.8829 19.9345 17.7286 19.9632 17.5768 19.9998H2.42184C2.38522 19.9894 2.34859 19.9711 2.31197 19.9658C0.972531 19.7488 0.00196207 18.632 0.00196207 17.2772C-0.000654022 12.423 -0.000654022 7.56621 0.00196207 2.71202C0.00457816 1.21601 1.21321 0.00507367 2.71223 0.00245826C7.57292 -0.00277255 12.4362 -0.00277255 17.2969 0.00245826C18.5134 0.00245826 19.5625 0.815849 19.8947 1.98755C19.9339 2.1314 19.9653 2.27524 19.9993 2.42171ZM10.6521 8.83991C10.6521 8.65945 10.6573 8.4816 10.6521 8.30114C10.6416 8.0239 10.5003 7.88267 10.223 7.88006C9.63179 7.87483 9.03793 7.87744 8.4467 7.88006C8.14585 7.88006 8.00981 8.0239 8.00981 8.32991C8.00981 10.8145 8.00981 13.3018 8.00981 15.7864C8.00981 16.1081 8.1537 16.2494 8.47548 16.2494C9.01439 16.2494 9.55592 16.2494 10.0948 16.2494C10.5317 16.2494 10.6442 16.1369 10.6442 15.6923C10.6442 14.4421 10.6442 13.1946 10.6442 11.9444C10.6442 11.4684 10.7489 11.0133 11.0131 10.6105C11.3349 10.1188 11.8084 9.96715 12.3682 10.0404C12.881 10.1084 13.2263 10.4118 13.3466 10.8982C13.446 11.3036 13.4931 11.7299 13.4984 12.1484C13.5167 13.3515 13.5036 14.5572 13.5036 15.7603C13.5036 16.1134 13.637 16.2467 13.985 16.2467C14.5631 16.2467 15.1439 16.2467 15.722 16.2467C16.0726 16.2467 16.2086 16.1107 16.2086 15.7629C16.2086 14.3976 16.2243 13.0298 16.1956 11.6645C16.1825 11.0892 16.1249 10.5059 15.9993 9.94361C15.7744 8.92622 15.2119 8.16252 14.1524 7.88267C13.8411 7.80159 13.5114 7.75975 13.1897 7.7519C12.1956 7.73359 11.3009 7.96375 10.6521 8.8373V8.83991ZM4.17986 12.0516C4.17986 13.2887 4.17986 14.5232 4.17986 15.7603C4.17986 16.0924 4.33944 16.2494 4.67168 16.252C5.21844 16.252 5.76521 16.252 6.31197 16.252C6.65729 16.252 6.81949 16.1003 6.81949 15.755C6.81949 13.2966 6.81949 10.8355 6.81949 8.37698C6.81949 8.02914 6.66514 7.88006 6.31458 7.87744C5.77567 7.87483 5.23414 7.87483 4.69523 7.87744C4.32374 7.87744 4.17986 8.02652 4.17986 8.40314C4.17986 9.6193 4.17986 10.8355 4.17986 12.0542V12.0516ZM7.19882 5.46342C7.20667 4.53495 6.45847 3.76341 5.53237 3.75033C4.58273 3.73726 3.80314 4.49311 3.79268 5.43465C3.78483 6.37358 4.53826 7.14513 5.47482 7.15297C6.43231 7.16082 7.19097 6.41805 7.19882 5.46081V5.46342Z" fill="white"/>
</svg>
